<?xml version="1.0" encoding="UTF-8" standalone="no"?>
<!DOCTYPE svg PUBLIC "-//W3C//DTD SVG 1.1//EN"
 "http://www.w3.org/Graphics/SVG/1.1/DTD/svg11.dtd">
<!-- Generated by graphviz version 2.40.1 (20161225.0304)
 -->
<!-- Title: dependencies Pages: 1 -->
<svg width="957pt" height="284pt"
 viewBox="0.00 0.00 957.00 284.00" xmlns="http://www.w3.org/2000/svg" xmlns:xlink="http://www.w3.org/1999/xlink">
<g id="graph0" class="graph" transform="scale(1 1) rotate(0) translate(4 280)">
<title>dependencies</title>
<polygon fill="#ffffff" stroke="transparent" points="-4,4 -4,-280 953,-280 953,4 -4,4"/>
<text text-anchor="start" x="453.5091" y="-42.4" font-family="sans-serif" font-weight="bold" font-size="14.00" fill="#000000">Legend</text>
<polygon fill="#ffffb3" stroke="transparent" points="240.5,-10 240.5,-30 260.5,-30 260.5,-10 240.5,-10"/>
<text text-anchor="start" x="264.129" y="-15.4" font-family="sans-serif" font-size="14.00" fill="#000000"> &#160;Declarations</text>
<polygon fill="#8dd3c7" stroke="transparent" points="353.5,-10 353.5,-30 373.5,-30 373.5,-10 353.5,-10"/>
<text text-anchor="start" x="377.2251" y="-15.4" font-family="sans-serif" font-size="14.00" fill="#000000"> &#160;Module</text>
<polygon fill="#80b1d3" stroke="transparent" points="439.5,-10 439.5,-30 459.5,-30 459.5,-10 439.5,-10"/>
<text text-anchor="start" x="463.2812" y="-15.4" font-family="sans-serif" font-size="14.00" fill="#000000"> &#160;Bootstrap</text>
<polygon fill="#fdb462" stroke="transparent" points="536.5,-10 536.5,-30 556.5,-30 556.5,-10 536.5,-10"/>
<text text-anchor="start" x="560.1732" y="-15.4" font-family="sans-serif" font-size="14.00" fill="#000000"> &#160;Providers</text>
<polygon fill="#fb8072" stroke="transparent" points="632.5,-10 632.5,-30 652.5,-30 652.5,-10 632.5,-10"/>
<text text-anchor="start" x="656.2258" y="-15.4" font-family="sans-serif" font-size="14.00" fill="#000000"> &#160;Exports</text>
<g id="clust1" class="cluster">
<title>cluster_AppModule</title>
<polygon fill="none" stroke="#000000" stroke-dasharray="1,5" points="8,-70 8,-268 941,-268 941,-70 8,-70"/>
</g>
<g id="clust2" class="cluster">
<title>cluster_AppModule_declarations</title>
<polygon fill="none" stroke="#000000" points="428,-78 428,-130 933,-130 933,-78 428,-78"/>
</g>
<g id="clust10" class="cluster">
<title>cluster_AppModule_bootstrap</title>
<polygon fill="none" stroke="#000000" points="533,-208 533,-260 621,-260 621,-208 533,-208"/>
</g>
<g id="clust11" class="cluster">
<title>cluster_AppModule_providers</title>
<polygon fill="none" stroke="#000000" points="16,-78 16,-130 420,-130 420,-78 16,-78"/>
</g>
<!-- HomePage -->
<g id="node1" class="node">
<title>HomePage</title>
<polygon fill="#ffffb3" stroke="#000000" points="924.9248,-122 847.0752,-122 847.0752,-86 924.9248,-86 924.9248,-122"/>
<text text-anchor="middle" x="886" y="-99.8" font-family="Times,serif" font-size="14.00" fill="#000000">HomePage</text>
</g>
<!-- AppModule -->
<g id="node6" class="node">
<title>AppModule</title>
<polygon fill="#8dd3c7" stroke="#000000" points="618.6571,-187 615.6571,-191 594.6571,-191 591.6571,-187 535.3429,-187 535.3429,-151 618.6571,-151 618.6571,-187"/>
<text text-anchor="middle" x="577" y="-164.8" font-family="Times,serif" font-size="14.00" fill="#000000">AppModule</text>
</g>
<!-- HomePage&#45;&gt;AppModule -->
<g id="edge1" class="edge">
<title>HomePage&#45;&gt;AppModule</title>
<path fill="none" stroke="#000000" d="M886,-122.2921C886,-144.2057 886,-178 886,-178 886,-178 628.6731,-178 628.6731,-178"/>
<polygon fill="#000000" stroke="#000000" points="628.6731,-174.5001 618.6731,-178 628.6731,-181.5001 628.6731,-174.5001"/>
</g>
<!-- MyApp -->
<g id="node2" class="node">
<title>MyApp</title>
<polygon fill="#ffffb3" stroke="#000000" points="829.5529,-122 770.4471,-122 770.4471,-86 829.5529,-86 829.5529,-122"/>
<text text-anchor="middle" x="800" y="-99.8" font-family="Times,serif" font-size="14.00" fill="#000000">MyApp</text>
</g>
<!-- MyApp&#45;&gt;AppModule -->
<g id="edge2" class="edge">
<title>MyApp&#45;&gt;AppModule</title>
<path fill="none" stroke="#000000" d="M800,-122.1061C800,-141.3391 800,-169 800,-169 800,-169 628.683,-169 628.683,-169"/>
<polygon fill="#000000" stroke="#000000" points="628.683,-165.5001 618.683,-169 628.683,-172.5001 628.683,-165.5001"/>
</g>
<!-- PaginaDosPage -->
<g id="node3" class="node">
<title>PaginaDosPage</title>
<polygon fill="#ffffb3" stroke="#000000" points="751.8655,-122 648.1345,-122 648.1345,-86 751.8655,-86 751.8655,-122"/>
<text text-anchor="middle" x="700" y="-99.8" font-family="Times,serif" font-size="14.00" fill="#000000">PaginaDosPage</text>
</g>
<!-- PaginaDosPage&#45;&gt;AppModule -->
<g id="edge3" class="edge">
<title>PaginaDosPage&#45;&gt;AppModule</title>
<path fill="none" stroke="#000000" d="M700,-122.027C700,-138.3976 700,-160 700,-160 700,-160 628.9856,-160 628.9856,-160"/>
<polygon fill="#000000" stroke="#000000" points="628.9856,-156.5001 618.9856,-160 628.9856,-163.5001 628.9856,-156.5001"/>
</g>
<!-- PaginaUnoPage -->
<g id="node4" class="node">
<title>PaginaUnoPage</title>
<polygon fill="#ffffb3" stroke="#000000" points="629.9216,-122 524.0784,-122 524.0784,-86 629.9216,-86 629.9216,-122"/>
<text text-anchor="middle" x="577" y="-99.8" font-family="Times,serif" font-size="14.00" fill="#000000">PaginaUnoPage</text>
</g>
<!-- PaginaUnoPage&#45;&gt;AppModule -->
<g id="edge4" class="edge">
<title>PaginaUnoPage&#45;&gt;AppModule</title>
<path fill="none" stroke="#000000" d="M577,-122.1061C577,-122.1061 577,-140.991 577,-140.991"/>
<polygon fill="#000000" stroke="#000000" points="573.5001,-140.9909 577,-150.991 580.5001,-140.991 573.5001,-140.9909"/>
</g>
<!-- TutoPage -->
<g id="node5" class="node">
<title>TutoPage</title>
<polygon fill="#ffffb3" stroke="#000000" points="505.6559,-122 436.3441,-122 436.3441,-86 505.6559,-86 505.6559,-122"/>
<text text-anchor="middle" x="471" y="-99.8" font-family="Times,serif" font-size="14.00" fill="#000000">TutoPage</text>
</g>
<!-- TutoPage&#45;&gt;AppModule -->
<g id="edge5" class="edge">
<title>TutoPage&#45;&gt;AppModule</title>
<path fill="none" stroke="#000000" d="M471,-122.027C471,-138.3976 471,-160 471,-160 471,-160 525.106,-160 525.106,-160"/>
<polygon fill="#000000" stroke="#000000" points="525.106,-163.5001 535.106,-160 525.106,-156.5001 525.106,-163.5001"/>
</g>
<!-- IonicApp  -->
<g id="node7" class="node">
<title>IonicApp </title>
<polygon fill="#80b1d3" stroke="#000000" points="613.3734,-252 540.6266,-252 540.6266,-216 613.3734,-216 613.3734,-252"/>
<text text-anchor="middle" x="577" y="-229.8" font-family="Times,serif" font-size="14.00" fill="#000000">IonicApp </text>
</g>
<!-- AppModule&#45;&gt;IonicApp  -->
<g id="edge6" class="edge">
<title>AppModule&#45;&gt;IonicApp </title>
<path fill="none" stroke="#000000" stroke-dasharray="1,5" d="M577,-187.1061C577,-187.1061 577,-205.991 577,-205.991"/>
<polygon fill="#000000" stroke="#000000" points="573.5001,-205.9909 577,-215.991 580.5001,-205.991 573.5001,-205.9909"/>
</g>
<!-- ProviderUnoProvider -->
<g id="node8" class="node">
<title>ProviderUnoProvider</title>
<ellipse fill="#fdb462" stroke="#000000" cx="318" cy="-104" rx="94.3447" ry="18"/>
<text text-anchor="middle" x="318" y="-99.8" font-family="Times,serif" font-size="14.00" fill="#000000">ProviderUnoProvider</text>
</g>
<!-- ProviderUnoProvider&#45;&gt;AppModule -->
<g id="edge7" class="edge">
<title>ProviderUnoProvider&#45;&gt;AppModule</title>
<path fill="none" stroke="#000000" d="M318,-122.1061C318,-141.3391 318,-169 318,-169 318,-169 525.0993,-169 525.0993,-169"/>
<polygon fill="#000000" stroke="#000000" points="525.0994,-172.5001 535.0993,-169 525.0993,-165.5001 525.0994,-172.5001"/>
</g>
<!-- ProviderdosProvider -->
<g id="node9" class="node">
<title>ProviderdosProvider</title>
<ellipse fill="#fdb462" stroke="#000000" cx="115" cy="-104" rx="90.9129" ry="18"/>
<text text-anchor="middle" x="115" y="-99.8" font-family="Times,serif" font-size="14.00" fill="#000000">ProviderdosProvider</text>
</g>
<!-- ProviderdosProvider&#45;&gt;AppModule -->
<g id="edge8" class="edge">
<title>ProviderdosProvider&#45;&gt;AppModule</title>
<path fill="none" stroke="#000000" d="M115,-122.2921C115,-144.2057 115,-178 115,-178 115,-178 525.1857,-178 525.1857,-178"/>
<polygon fill="#000000" stroke="#000000" points="525.1858,-181.5001 535.1857,-178 525.1857,-174.5001 525.1858,-181.5001"/>
</g>
</g>
</svg>
